<?xml version="1.0" encoding="utf-8"?>
<!-- Generator: Adobe Illustrator 22.0.1, SVG Export Plug-In . SVG Version: 6.00 Build 0)  -->
<svg version="1.1" id="Layer_1" xmlns="http://www.w3.org/2000/svg" xmlns:xlink="http://www.w3.org/1999/xlink" x="0px" y="0px"
	 viewBox="0 0 210 210" style="enable-background:new 0 0 210 210;" xml:space="preserve">
<style type="text/css">
	.st0{clip-path:url(#SVGID_2_);fill:#010101;}
	.st1{clip-path:url(#SVGID_2_);fill:none;stroke:#010101;stroke-miterlimit:10;}
	.st2{clip-path:url(#SVGID_2_);fill:#0D0E0E;}
</style>
<g>
	<defs>
		<rect id="SVGID_1_" width="210" height="210"/>
	</defs>
	<clipPath id="SVGID_2_">
		<use xlink:href="#SVGID_1_"  style="overflow:visible;"/>
	</clipPath>
	<rect x="0.2" y="0.3" class="st0" width="210" height="210"/>
	<rect x="0.2" y="0.3" class="st1" width="210" height="210"/>
	<path class="st2" d="M114.6,82.5L90,57.9l-9.6,9.6L105,92.1L114.6,82.5z M90,62.1l20.4,20.4l-5.4,5.4L84.6,67.5L90,62.1z"/>
	<path class="st2" d="M174.6,67.5l-9.6-9.6l-22.5,22.5l-12.9-12.9l5.9-5.9l7.5,7.5l9.6-9.6l-17.1-17.1L120,57.9l-30-30L57.9,60
		l9.6,9.6L90,47.1l52.5,52.5L174.6,67.5z M67.5,65.4L62.1,60L90,32.1l30,30l15.5-15.5l12.9,12.9l-5.4,5.4l-7.5-7.5l-10.1,10.1
		l17.1,17.1L165,62.1l5.4,5.4l-27.9,27.9L90,42.9L67.5,65.4z"/>
	<path class="st2" d="M84.6,82.5L75,72.9l-7.5,7.5l-23-23L34.9,67l32.6,32.6L84.6,82.5z M44.5,61.6l23,23l7.5-7.5l5.4,5.4L67.5,95.4
		L39.1,67L44.5,61.6z"/>
	<path class="st2" d="M90,107.1l15,15l9.6-9.6L90,87.9L57.9,120l9.6,9.6L90,107.1z M90,92.1l20.4,20.4l-5.4,5.4l-15-15l-22.5,22.5
		l-5.4-5.4L90,92.1z"/>
	<path class="st2" d="M144.6,112.5l-9.6-9.6l-30,30l-15-15l-9.6,9.6l24.6,24.6L144.6,112.5z M90,122.1l15,15l30-30l5.4,5.4
		L105,147.9l-20.4-20.4L90,122.1z"/>
	<path class="st2" d="M92.1,150L75,132.9l-9.6,9.6l17.1,17.1L92.1,150z M75,137.1L87.9,150l-5.4,5.4l-12.9-12.9L75,137.1z"/>
	<path class="st2" d="M189.6,127.5l-32.1-32.1l-9.6,9.6l32.1,32.1L189.6,127.5z M157.5,99.6l27.9,27.9l-5.4,5.4L152.1,105
		L157.5,99.6z"/>
	<path class="st2" d="M189.6,157.5L150,117.9l-24.6,24.6l9.6,9.6l15-15l5.4,5.4l-15,15l9.6,9.6l15-15l15,15L189.6,157.5z M150,162.9
		l-5.4-5.4l15-15l-9.6-9.6l-15,15l-5.4-5.4l20.4-20.4l35.4,35.4l-5.4,5.4l-15-15L150,162.9z"/>
	<path class="st2" d="M174.6,172.5l-9.6-9.6l-15,15l-30-30l-9.6,9.6l39.6,39.6L174.6,172.5z M120,152.1l30,30l15-15l5.4,5.4
		L150,192.9l-35.4-35.4L120,152.1z"/>
	<path class="st2" d="M69.6,157.5l-9.6-9.6l-24.6,24.6l9.6,9.6L69.6,157.5z M60,152.1l5.4,5.4L45,177.9l-5.4-5.4L60,152.1z"/>
	<path class="st2" d="M129.6,97.5l-9.6-9.6l-9.6,9.6l9.6,9.6L129.6,97.5z M120,92.1l5.4,5.4l-5.4,5.4l-5.4-5.4L120,92.1z"/>
	<path class="st2" d="M107.1,165l-9.6-9.6l-9.6,9.6l9.6,9.6L107.1,165z M97.5,159.6l5.4,5.4l-5.4,5.4l-5.4-5.4L97.5,159.6z"/>
	<path class="st2" d="M122.1,180l-9.6-9.6l-15,15L75,162.9l-9.6,9.6l32.1,32.1L122.1,180z M75,167.1l22.5,22.5l15-15l5.4,5.4
		l-20.4,20.4l-27.9-27.9L75,167.1z"/>
	<path class="st2" d="M204.6,67.5l-9.6-9.6L162.9,90l9.6,9.6L204.6,67.5z M195,62.1l5.4,5.4l-27.9,27.9l-5.4-5.4L195,62.1z"/>
	<path class="st2" d="M137.1,195l-9.6-9.6l-25.1,25.1l9.6,9.6L137.1,195z M127.5,189.6l5.4,5.4L112,215.9l-5.4-5.4L127.5,189.6z"/>
	<path class="st2" d="M77.1,195L60,177.9L42.9,195l9.6,9.6l7.5-7.5l7.5,7.5L77.1,195z M52.5,200.4l-5.4-5.4L60,182.1L72.9,195
		l-5.4,5.4l-7.5-7.5L52.5,200.4z"/>
	<path class="st2" d="M189.6,52.6l-25.2-23.9L147.9,45l9.7,9.7l7.1-7.5L180,62.4L189.6,52.6z M157.5,50.3l-5.3-5.3l12.4-12.1
		l20.8,19.8l-5.4,5.5l-15.4-15.3L157.5,50.3z"/>
	<path class="st2" d="M84.6,22.5L75,12.9l-9.6,9.6l9.6,9.6L84.6,22.5z M75,17.1l5.4,5.4L75,27.9l-5.4-5.4L75,17.1z"/>
	<path class="st2" d="M16.6,120.5L7,110.9l-31.6,31.6l9.6,9.6L16.6,120.5z M7,115.1l5.4,5.4L-15,147.9l-5.4-5.4L7,115.1z"/>
	<path class="st2" d="M2.1,105l-7.5-7.7L2.2,90l-9.7-9.1L-32.1,105l17.1,17.1L2.1,105z M-7.5,85.1l5.3,4.9l-7.4,7.2l7.5,7.8
		L-15,117.9L-27.9,105L-7.5,85.1z"/>
	<path class="st2" d="M24.6,38L15,28.4l-15,15l-22.5-22.5l-9.6,9.6L0,62.6L24.6,38z M-22.5,25.1L0,47.6l15-15l5.4,5.4L0,58.4
		l-27.9-27.9L-22.5,25.1z"/>
	<path class="st2" d="M9.6,187.5L0,177.9l-7.5,7.7l-5.4-5.6L0,167.1l15,14.7l9.6-9.3L0,147.9l-39.6,39.6l9.6,9.6l7.5-7.5l15,15
		L9.6,187.5z M-30,192.9l-5.4-5.4L0,152.1l20.4,20.4l-5.4,5.2L0,162.9L-17.1,180l9.6,9.9l7.5-7.8l5.4,5.4l-12.9,12.9l-15-15
		L-30,192.9z"/>
	<path class="st2" d="M39.6,52.5L30,42.9L-2.1,75l9.6,9.6L39.6,52.5z M30,47.1l5.4,5.4L7.5,80.4L2.1,75L30,47.1z"/>
	<path class="st2" d="M39.6,82.5L30,72.9L5.4,97.5l9.6,9.6L39.6,82.5z M30,77.1l5.4,5.4L15,102.9l-5.4-5.4L30,77.1z"/>
	<path class="st2" d="M45,107.1l7.5,7.5l9.6-9.6L45,87.9l-24.6,24.6l9.6,9.6L45,107.1z M45,92.1L57.9,105l-5.4,5.4l-7.5-7.5l-15,15
		l-5.4-5.4L45,92.1z"/>
	<path class="st2" d="M39.1,157l-14.5-14.5l7.5-7.5l-9.6-9.6L5.4,142.5l24.1,24.1L39.1,157z M22.5,129.6l5.4,5.4l-7.5,7.5L34.9,157
		l-5.4,5.4L9.6,142.5L22.5,129.6z"/>
	<path class="st2" d="M62.1,135L45,117.9l-9.6,9.6l7.5,7.5l-7.5,7.5l9.6,9.6L62.1,135z M47.1,135l-7.5-7.5l5.4-5.4L57.9,135
		L45,147.9l-5.4-5.4L47.1,135z"/>
	<path class="st2" d="M39.6,187.5l-9.6-9.6l-16.6,16.6l9.6,9.6L39.6,187.5z M30,182.1l5.4,5.4L23,199.9l-5.4-5.4L30,182.1z"/>
	<path class="st2" d="M204.6,67.5l-9.6-9.6L162.9,90l9.6,9.6L204.6,67.5z M195,62.1l5.4,5.4l-27.9,27.9l-5.4-5.4L195,62.1z"/>
	<path class="st2" d="M9.6,22.5L-8.1,4.5l-9.5,11.1l17.6,17L9.6,22.5z M-7.9,9L5.4,22.5l-5.5,5.8l-13.4-13L-7.9,9z"/>
	<path class="st2" d="M129.6,247.5L83,200.1l-9.5,10.5l46.6,46.6L129.6,247.5z M83,204.4l42.3,43.1l-5.4,5.4l-42.4-42.4L83,204.4z"
		/>
	<path class="st2" d="M197.1,210.2l-9.6-9.3l-7,7l-14.9-15l-10.2,9.5l7,7.6l-7.3,7.5l17.2,17.1L197.1,210.2z M166.6,210l-7-7.4
		l5.8-5.5l15,15l7-7l5.3,5.2l-20.4,20.1l-13-12.9L166.6,210z"/>
	<path class="st2" d="M197.1,0.2l-9.6-9.3l-7,7l-14.9-15l-10.2,9.5l7,7.6l-7.3,7.5l17.2,17.1L197.1,0.2z M166.6,0l-7-7.4l5.8-5.5
		l15,15l7-7l5.3,5.2l-20.4,20.1l-13-12.9L166.6,0z"/>
	<path class="st2" d="M69.6,217.5l-9.6-9.6l-7.5,7.5l-15-15l-9.6,9.6l24.6,24.6L69.6,217.5z M37.5,204.6l15,15l7.5-7.5l5.4,5.4
		l-12.9,12.9L32.1,210L37.5,204.6z"/>
	<path class="st2" d="M159.7,232.5l-10.2-9.6l-7.2,7.4l-5.1-5.3l15-15l-9.6-9.6L117.8,225l24.5,24.6L159.7,232.5z M142.5,204.6
		l5.4,5.4l-15,15l9.4,9.7l7.3-7.6l5.8,5.4l-13.1,12.9L122,225L142.5,204.6z"/>
	<path class="st2" d="M129.6,37.5L83-9.9L73.4,0.5L120,47.1L129.6,37.5z M83-5.6l42.3,43.1l-5.4,5.4L77.6,0.5L83-5.6z"/>
	<path class="st2" d="M24.6,7.5L7-10.1l-9.6,9.6L15,17.1L24.6,7.5z M7-5.9L20.4,7.5L15,12.9L1.6-0.5L7-5.9z"/>
	<path class="st2" d="M24.6,217.5L7,199.9l-9.6,9.6L15,227.1L24.6,217.5z M7,204.1l13.4,13.4l-5.4,5.4L1.6,209.5L7,204.1z"/>
	<path class="st2" d="M226.6,120.5l-9.6-9.6l-31.6,31.6l9.6,9.6L226.6,120.5z M217,115.1l5.4,5.4L195,147.9l-5.4-5.4L217,115.1z"/>
	<path class="st2" d="M204.6,67.5l-9.6-9.6L162.9,90l9.6,9.6L204.6,67.5z M195,62.1l5.4,5.4l-27.9,27.9l-5.4-5.4L195,62.1z"/>
	<path class="st2" d="M212.1,105l-7.5-7.7l7.6-7.3l-9.7-9.1L177.9,105l17.1,17.1L212.1,105z M202.5,85.1l5.3,4.9l-7.4,7.2l7.5,7.8
		L195,117.9L182.1,105L202.5,85.1z"/>
	<path class="st2" d="M234.6,38l-9.6-9.6l-15,15l-22.5-22.5l-9.6,9.6L210,62.6L234.6,38z M187.5,25.1L210,47.6l15-15l5.4,5.4
		L210,58.4l-27.9-27.9L187.5,25.1z"/>
	<path class="st2" d="M219.6,187.5l-9.6-9.6l-7.5,7.7l-5.4-5.6l12.9-12.9l15,14.7l9.6-9.3L210,147.9l-39.6,39.6l9.6,9.6l7.5-7.5
		l15,15L219.6,187.5z M180,192.9l-5.4-5.4l35.4-35.4l20.4,20.4l-5.4,5.2l-15-14.8L192.9,180l9.6,9.9l7.5-7.8l5.4,5.4l-12.9,12.9
		l-15-15L180,192.9z"/>
	<path class="st2" d="M219.6,22.5L201.9,4.5l-9.5,11.1l17.6,17L219.6,22.5z M202.1,9l13.3,13.6l-5.5,5.8l-13.4-13L202.1,9z"/>
	<path class="st2" d="M69.6,7.5L60-2.1l-7.5,7.5l-15-15L27.9,0l24.6,24.6L69.6,7.5z M37.5-5.4l15,15L60,2.1l5.4,5.4L52.5,20.4
		L32.1,0L37.5-5.4z"/>
	<path class="st2" d="M159.7,22.5l-10.2-9.6l-7.2,7.4l-5.1-5.3l15-15l-9.6-9.6L117.8,15l24.5,24.6L159.7,22.5z M142.5-5.4l5.4,5.4
		l-15,15l9.4,9.7l7.3-7.6l5.8,5.4l-13.1,12.9L122,15L142.5-5.4z"/>
	<path class="st2" d="M69.6,37.5L60,27.9l-7.5,7.5L30,12.9l-9.6,9.6l32.1,32.1L69.6,37.5z M30,17.1l22.5,22.5l7.5-7.5l5.4,5.4
		L52.5,50.4L24.6,22.5L30,17.1z"/>
</g>
</svg>
