<?xml version="1.0" encoding="utf-8"?>
<!-- Generator: Adobe Illustrator 22.0.1, SVG Export Plug-In . SVG Version: 6.00 Build 0)  -->
<svg version="1.1" xmlns="http://www.w3.org/2000/svg" xmlns:xlink="http://www.w3.org/1999/xlink" x="0px" y="0px"
	 viewBox="0 0 500 500" style="enable-background:new 0 0 500 500;" xml:space="preserve">
<style type="text/css">
	.st0{fill:none;}
	.st1{fill:#0C0C0C;}
	.st2{fill:url(#Nueva_muestra_de_motivo_5);stroke:url(#Nueva_muestra_de_motivo_5);stroke-miterlimit:10;}
</style>
<pattern  x="-150" y="-150" width="210" height="210" patternUnits="userSpaceOnUse" id="Nueva_muestra_de_motivo_5" viewBox="206.2 -409 210 210" style="overflow:visible;">
	<g>
		<rect x="206.2" y="-409" class="st0" width="210" height="210"/>
		<g>
			<path class="st1" d="M429.6-187.8l-17.7-17.9l-9.5,11.1l17.6,17L429.6-187.8z M412.1-201.3l13.3,13.6l-5.5,5.8l-13.4-13
				L412.1-201.3z"/>
		</g>
		<g>
			<rect x="210.2" y="-210" width="210" height="210"/>
			<path class="st1" d="M219.6-187.8l-17.7-17.9l-9.5,11.1l17.6,17L219.6-187.8z M202.1-201.3l13.3,13.6l-5.5,5.8l-13.4-13
				L202.1-201.3z"/>
			<path class="st1" d="M407.1-210l-9.6-9.3l-7,7l-14.9-15l-10.2,9.5l7,7.6l-7.3,7.5l17.2,17.1L407.1-210z M376.6-210.2l-7-7.4
				l5.8-5.5l15,15l7-7l5.3,5.2l-20.4,20.1l-13-12.9L376.6-210.2z"/>
			<path class="st1" d="M339.6-172.7L293-220.2l-9.5,10.5l46.6,46.6L339.6-172.7z M293-215.8l42.3,43.1l-5.4,5.4l-42.4-42.4
				L293-215.8z"/>
			<path class="st1" d="M234.6-202.8L217-220.4l-9.6,9.6l17.6,17.6L234.6-202.8z M217-216.1l13.4,13.4l-5.4,5.4l-13.4-13.4
				L217-216.1z"/>
			<path class="st1" d="M429.6-187.8l-17.7-17.9l-9.5,11.1l17.6,17L429.6-187.8z M412.1-201.3l13.3,13.6l-5.5,5.8l-13.4-13
				L412.1-201.3z"/>
			<path class="st1" d="M279.6-202.8l-9.6-9.6l-7.5,7.5l-15-15l-9.6,9.6l24.6,24.6L279.6-202.8z M247.5-215.6l15,15l7.5-7.5l5.4,5.4
				l-12.9,12.9l-20.4-20.4L247.5-215.6z"/>
			<path class="st1" d="M369.7-187.8l-10.2-9.6l-7.2,7.4l-5.1-5.3l15-15l-9.6-9.6l-24.7,24.6l24.5,24.6L369.7-187.8z M352.5-215.6
				l5.4,5.4l-15,15l9.4,9.7l7.3-7.6l5.8,5.4l-13.1,12.9L332-195.2L352.5-215.6z"/>
			<rect x="210" y="-210.3" class="st0" width="210" height="210"/>
		</g>
		<g>
			<rect x="0.2" y="-210" width="210" height="210"/>
			<path class="st1" d="M219.6-187.8l-17.7-17.9l-9.5,11.1l17.6,17L219.6-187.8z M202.1-201.3l13.3,13.6l-5.5,5.8l-13.4-13
				L202.1-201.3z"/>
			<rect y="-210.3" class="st0" width="210" height="210"/>
		</g>
		<g>
			<path class="st1" d="M436.6-299.8l-9.6-9.6l-31.6,31.6l9.6,9.6L436.6-299.8z M427-305.1l5.4,5.4L405-272.4l-5.4-5.4L427-305.1z"
				/>
			<path class="st1" d="M422.1-315.2l-7.5-7.7l7.6-7.3l-9.7-9.1l-24.6,24.1l17.1,17.1L422.1-315.2z M412.5-335.2l5.3,4.9l-7.4,7.2
				l7.5,7.8L405-302.4l-12.9-12.9L412.5-335.2z"/>
			<path class="st1" d="M444.6-382.2l-9.6-9.6l-15,15l-22.5-22.5l-9.6,9.6l32.1,32.1L444.6-382.2z M397.5-395.1l22.5,22.5l15-15
				l5.4,5.4L420-361.9l-27.9-27.9L397.5-395.1z"/>
			<path class="st1" d="M429.6-232.8l-9.6-9.6l-7.5,7.7l-5.4-5.6l12.9-12.9l15,14.7l9.6-9.3L420-272.4l-39.6,39.6l9.6,9.6l7.5-7.5
				l15,15L429.6-232.8z M390-227.4l-5.4-5.4l35.4-35.4l20.4,20.4l-5.4,5.2l-15-14.8l-17.1,17.1l9.6,9.9l7.5-7.8l5.4,5.4l-12.9,12.9
				l-15-15L390-227.4z"/>
			<path class="st1" d="M429.6-397.8l-17.7-17.9l-9.5,11.1l17.6,17L429.6-397.8z M412.1-411.3l13.3,13.6l-5.5,5.8l-13.4-13
				L412.1-411.3z"/>
		</g>
		<g>
			<rect x="210.2" y="-420" width="210" height="210"/>
			<path class="st1" d="M324.6-337.8L300-362.4l-9.6,9.6l24.6,24.6L324.6-337.8z M300-358.1l20.4,20.4l-5.4,5.4l-20.4-20.4
				L300-358.1z"/>
			<path class="st1" d="M384.6-352.8l-9.6-9.6l-22.5,22.5l-12.9-12.9l5.9-5.9l7.5,7.5l9.6-9.6l-17.1-17.1L330-362.4l-30-30
				l-32.1,32.1l9.6,9.6l22.5-22.5l52.5,52.5L384.6-352.8z M277.5-354.9l-5.4-5.4l27.9-27.9l30,30l15.5-15.5l12.9,12.9l-5.4,5.4
				l-7.5-7.5l-10.1,10.1l17.1,17.1l22.5-22.5l5.4,5.4l-27.9,27.9L300-377.4L277.5-354.9z"/>
			<path class="st1" d="M294.6-337.8l-9.6-9.6l-7.5,7.5l-23-23l-9.6,9.6l32.6,32.6L294.6-337.8z M254.5-358.6l23,23l7.5-7.5l5.4,5.4
				l-12.9,12.9l-28.4-28.4L254.5-358.6z"/>
			<path class="st1" d="M300-313.1l15,15l9.6-9.6L300-332.4l-32.1,32.1l9.6,9.6L300-313.1z M300-328.1l20.4,20.4l-5.4,5.4l-15-15
				l-22.5,22.5l-5.4-5.4L300-328.1z"/>
			<path class="st1" d="M354.6-307.8l-9.6-9.6l-30,30l-15-15l-9.6,9.6l24.6,24.6L354.6-307.8z M300-298.1l15,15l30-30l5.4,5.4
				L315-272.4l-20.4-20.4L300-298.1z"/>
			<path class="st1" d="M302.1-270.2L285-287.4l-9.6,9.6l17.1,17.1L302.1-270.2z M285-283.1l12.9,12.9l-5.4,5.4l-12.9-12.9
				L285-283.1z"/>
			<path class="st1" d="M399.6-292.8l-32.1-32.1l-9.6,9.6l32.1,32.1L399.6-292.8z M367.5-320.6l27.9,27.9l-5.4,5.4l-27.9-27.9
				L367.5-320.6z"/>
			<path class="st1" d="M399.6-262.8L360-302.4l-24.6,24.6l9.6,9.6l15-15l5.4,5.4l-15,15l9.6,9.6l15-15l15,15L399.6-262.8z
				 M360-257.4l-5.4-5.4l15-15l-9.6-9.6l-15,15l-5.4-5.4l20.4-20.4l35.4,35.4l-5.4,5.4l-15-15L360-257.4z"/>
			<path class="st1" d="M384.6-247.8l-9.6-9.6l-15,15l-30-30l-9.6,9.6l39.6,39.6L384.6-247.8z M330-268.1l30,30l15-15l5.4,5.4
				L360-227.4l-35.4-35.4L330-268.1z"/>
			<path class="st1" d="M279.6-262.8l-9.6-9.6l-24.6,24.6l9.6,9.6L279.6-262.8z M270-268.1l5.4,5.4L255-242.4l-5.4-5.4L270-268.1z"
				/>
			<path class="st1" d="M339.6-322.8l-9.6-9.6l-9.6,9.6l9.6,9.6L339.6-322.8z M330-328.1l5.4,5.4l-5.4,5.4l-5.4-5.4L330-328.1z"/>
			<path class="st1" d="M317.1-255.3l-9.6-9.6l-9.6,9.6l9.6,9.6L317.1-255.3z M307.5-260.6l5.4,5.4l-5.4,5.4l-5.4-5.4L307.5-260.6z"
				/>
			<path class="st1" d="M332.1-240.3l-9.6-9.6l-15,15L285-257.4l-9.6,9.6l32.1,32.1L332.1-240.3z M285-253.1l22.5,22.5l15-15
				l5.4,5.4l-20.4,20.4l-27.9-27.9L285-253.1z"/>
			<path class="st1" d="M414.6-352.8l-9.6-9.6l-32.1,32.1l9.6,9.6L414.6-352.8z M405-358.1l5.4,5.4l-27.9,27.9l-5.4-5.4L405-358.1z"
				/>
			<path class="st1" d="M347.1-225.3l-9.6-9.6l-25.1,25.1l9.6,9.6L347.1-225.3z M337.5-230.6l5.4,5.4L322-204.4l-5.4-5.4
				L337.5-230.6z"/>
			<path class="st1" d="M287.1-225.3L270-242.4l-17.1,17.1l9.6,9.6l7.5-7.5l7.5,7.5L287.1-225.3z M262.5-219.9l-5.4-5.4l12.9-12.9
				l12.9,12.9l-5.4,5.4l-7.5-7.5L262.5-219.9z"/>
			<path class="st1" d="M399.6-367.7l-25.2-23.9l-16.6,16.3l9.7,9.7l7.1-7.5l15.4,15.2L399.6-367.7z M367.5-369.9l-5.3-5.3
				l12.4-12.1l20.8,19.8l-5.4,5.5l-15.4-15.3L367.5-369.9z"/>
			<path class="st1" d="M294.6-397.8l-9.6-9.6l-9.6,9.6l9.6,9.6L294.6-397.8z M285-403.1l5.4,5.4l-5.4,5.4l-5.4-5.4L285-403.1z"/>
			<path class="st1" d="M226.6-299.8l-9.6-9.6l-31.6,31.6l9.6,9.6L226.6-299.8z M217-305.1l5.4,5.4L195-272.4l-5.4-5.4L217-305.1z"
				/>
			<path class="st1" d="M212.1-315.2l-7.5-7.7l7.6-7.3l-9.7-9.1l-24.6,24.1l17.1,17.1L212.1-315.2z M202.5-335.2l5.3,4.9l-7.4,7.2
				l7.5,7.8L195-302.4l-12.9-12.9L202.5-335.2z"/>
			<path class="st1" d="M234.6-382.2l-9.6-9.6l-15,15l-22.5-22.5l-9.6,9.6l32.1,32.1L234.6-382.2z M187.5-395.1l22.5,22.5l15-15
				l5.4,5.4L210-361.9l-27.9-27.9L187.5-395.1z"/>
			<path class="st1" d="M219.6-232.8l-9.6-9.6l-7.5,7.7l-5.4-5.6l12.9-12.9l15,14.7l9.6-9.3L210-272.4l-39.6,39.6l9.6,9.6l7.5-7.5
				l15,15L219.6-232.8z M180-227.4l-5.4-5.4l35.4-35.4l20.4,20.4l-5.4,5.2l-15-14.8l-17.1,17.1l9.6,9.9l7.5-7.8l5.4,5.4l-12.9,12.9
				l-15-15L180-227.4z"/>
			<path class="st1" d="M249.6-367.8l-9.6-9.6l-32.1,32.1l9.6,9.6L249.6-367.8z M240-373.1l5.4,5.4l-27.9,27.9l-5.4-5.4L240-373.1z"
				/>
			<path class="st1" d="M249.6-337.8l-9.6-9.6l-24.6,24.6l9.6,9.6L249.6-337.8z M240-343.1l5.4,5.4L225-317.4l-5.4-5.4L240-343.1z"
				/>
			<path class="st1" d="M255-313.1l7.5,7.5l9.6-9.6L255-332.4l-24.6,24.6l9.6,9.6L255-313.1z M255-328.1l12.9,12.9l-5.4,5.4
				l-7.5-7.5l-15,15l-5.4-5.4L255-328.1z"/>
			<path class="st1" d="M249.1-263.2l-14.5-14.5l7.5-7.5l-9.6-9.6l-17.1,17.1l24.1,24.1L249.1-263.2z M232.5-290.6l5.4,5.4l-7.5,7.5
				l14.5,14.5l-5.4,5.4l-19.9-19.9L232.5-290.6z"/>
			<path class="st1" d="M272.1-285.2L255-302.4l-9.6,9.6l7.5,7.5l-7.5,7.5l9.6,9.6L272.1-285.2z M257.1-285.2l-7.5-7.5l5.4-5.4
				l12.9,12.9L255-272.4l-5.4-5.4L257.1-285.2z"/>
			<path class="st1" d="M249.6-232.8l-9.6-9.6l-16.6,16.6l9.6,9.6L249.6-232.8z M240-238.1l5.4,5.4L233-220.4l-5.4-5.4L240-238.1z"
				/>
			<path class="st1" d="M414.6-352.8l-9.6-9.6l-32.1,32.1l9.6,9.6L414.6-352.8z M405-358.1l5.4,5.4l-27.9,27.9l-5.4-5.4L405-358.1z"
				/>
			<path class="st1" d="M219.6-397.8l-17.7-17.9l-9.5,11.1l17.6,17L219.6-397.8z M202.1-411.3l13.3,13.6l-5.5,5.8l-13.4-13
				L202.1-411.3z"/>
			<path class="st1" d="M339.6-172.7L293-220.2l-9.5,10.5l46.6,46.6L339.6-172.7z M293-215.8l42.3,43.1l-5.4,5.4l-42.4-42.4
				L293-215.8z"/>
			<path class="st1" d="M407.1-210l-9.6-9.3l-7,7l-14.9-15l-10.2,9.5l7,7.6l-7.3,7.5l17.2,17.1L407.1-210z M376.6-210.2l-7-7.4
				l5.8-5.5l15,15l7-7l5.3,5.2l-20.4,20.1l-13-12.9L376.6-210.2z"/>
			<path class="st1" d="M407.1-420l-9.6-9.3l-7,7l-14.9-15l-10.2,9.5l7,7.6l-7.3,7.5l17.2,17.1L407.1-420z M376.6-420.2l-7-7.4
				l5.8-5.5l15,15l7-7l5.3,5.2l-20.4,20.1l-13-12.9L376.6-420.2z"/>
			<path class="st1" d="M279.6-202.8l-9.6-9.6l-7.5,7.5l-15-15l-9.6,9.6l24.6,24.6L279.6-202.8z M247.5-215.6l15,15l7.5-7.5l5.4,5.4
				l-12.9,12.9l-20.4-20.4L247.5-215.6z"/>
			<path class="st1" d="M369.7-187.8l-10.2-9.6l-7.2,7.4l-5.1-5.3l15-15l-9.6-9.6l-24.7,24.6l24.5,24.6L369.7-187.8z M352.5-215.6
				l5.4,5.4l-15,15l9.4,9.7l7.3-7.6l5.8,5.4l-13.1,12.9L332-195.2L352.5-215.6z"/>
			<path class="st1" d="M339.6-382.7L293-430.2l-9.5,10.5l46.6,46.6L339.6-382.7z M293-425.8l42.3,43.1l-5.4,5.4l-42.4-42.4
				L293-425.8z"/>
			<path class="st1" d="M234.6-412.8L217-430.4l-9.6,9.6l17.6,17.6L234.6-412.8z M217-426.1l13.4,13.4l-5.4,5.4l-13.4-13.4
				L217-426.1z"/>
			<path class="st1" d="M234.6-202.8L217-220.4l-9.6,9.6l17.6,17.6L234.6-202.8z M217-216.1l13.4,13.4l-5.4,5.4l-13.4-13.4
				L217-216.1z"/>
			<path class="st1" d="M436.6-299.8l-9.6-9.6l-31.6,31.6l9.6,9.6L436.6-299.8z M427-305.1l5.4,5.4L405-272.4l-5.4-5.4L427-305.1z"
				/>
			<path class="st1" d="M414.6-352.8l-9.6-9.6l-32.1,32.1l9.6,9.6L414.6-352.8z M405-358.1l5.4,5.4l-27.9,27.9l-5.4-5.4L405-358.1z"
				/>
			<path class="st1" d="M422.1-315.2l-7.5-7.7l7.6-7.3l-9.7-9.1l-24.6,24.1l17.1,17.1L422.1-315.2z M412.5-335.2l5.3,4.9l-7.4,7.2
				l7.5,7.8L405-302.4l-12.9-12.9L412.5-335.2z"/>
			<path class="st1" d="M444.6-382.2l-9.6-9.6l-15,15l-22.5-22.5l-9.6,9.6l32.1,32.1L444.6-382.2z M397.5-395.1l22.5,22.5l15-15
				l5.4,5.4L420-361.9l-27.9-27.9L397.5-395.1z"/>
			<path class="st1" d="M429.6-232.8l-9.6-9.6l-7.5,7.7l-5.4-5.6l12.9-12.9l15,14.7l9.6-9.3L420-272.4l-39.6,39.6l9.6,9.6l7.5-7.5
				l15,15L429.6-232.8z M390-227.4l-5.4-5.4l35.4-35.4l20.4,20.4l-5.4,5.2l-15-14.8l-17.1,17.1l9.6,9.9l7.5-7.8l5.4,5.4l-12.9,12.9
				l-15-15L390-227.4z"/>
			<path class="st1" d="M429.6-397.8l-17.7-17.9l-9.5,11.1l17.6,17L429.6-397.8z M412.1-411.3l13.3,13.6l-5.5,5.8l-13.4-13
				L412.1-411.3z"/>
			<path class="st1" d="M279.6-412.8l-9.6-9.6l-7.5,7.5l-15-15l-9.6,9.6l24.6,24.6L279.6-412.8z M247.5-425.6l15,15l7.5-7.5l5.4,5.4
				l-12.9,12.9l-20.4-20.4L247.5-425.6z"/>
			<path class="st1" d="M369.7-397.8l-10.2-9.6l-7.2,7.4l-5.1-5.3l15-15l-9.6-9.6l-24.7,24.6l24.5,24.6L369.7-397.8z M352.5-425.6
				l5.4,5.4l-15,15l9.4,9.7l7.3-7.6l5.8,5.4l-13.1,12.9L332-405.2L352.5-425.6z"/>
			<path class="st1" d="M279.6-382.8l-9.6-9.6l-7.5,7.5L240-407.4l-9.6,9.6l32.1,32.1L279.6-382.8z M240-403.1l22.5,22.5l7.5-7.5
				l5.4,5.4l-12.9,12.9l-27.9-27.9L240-403.1z"/>
			<rect x="210" y="-420.2" class="st0" width="210" height="210"/>
		</g>
		<g>
			<rect x="0.2" y="-420" width="210" height="210"/>
			<path class="st1" d="M226.6-299.8l-9.6-9.6l-31.6,31.6l9.6,9.6L226.6-299.8z M217-305.1l5.4,5.4L195-272.4l-5.4-5.4L217-305.1z"
				/>
			<path class="st1" d="M212.1-315.2l-7.5-7.7l7.6-7.3l-9.7-9.1l-24.6,24.1l17.1,17.1L212.1-315.2z M202.5-335.2l5.3,4.9l-7.4,7.2
				l7.5,7.8L195-302.4l-12.9-12.9L202.5-335.2z"/>
			<path class="st1" d="M234.6-382.2l-9.6-9.6l-15,15l-22.5-22.5l-9.6,9.6l32.1,32.1L234.6-382.2z M187.5-395.1l22.5,22.5l15-15
				l5.4,5.4L210-361.9l-27.9-27.9L187.5-395.1z"/>
			<path class="st1" d="M219.6-232.8l-9.6-9.6l-7.5,7.7l-5.4-5.6l12.9-12.9l15,14.7l9.6-9.3L210-272.4l-39.6,39.6l9.6,9.6l7.5-7.5
				l15,15L219.6-232.8z M180-227.4l-5.4-5.4l35.4-35.4l20.4,20.4l-5.4,5.2l-15-14.8l-17.1,17.1l9.6,9.9l7.5-7.8l5.4,5.4l-12.9,12.9
				l-15-15L180-227.4z"/>
			<path class="st1" d="M219.6-397.8l-17.7-17.9l-9.5,11.1l17.6,17L219.6-397.8z M202.1-411.3l13.3,13.6l-5.5,5.8l-13.4-13
				L202.1-411.3z"/>
			<rect y="-420.2" class="st0" width="210" height="210"/>
		</g>
		<g>
			<path class="st1" d="M339.6-382.7L293-430.2l-9.5,10.5l46.6,46.6L339.6-382.7z M293-425.8l42.3,43.1l-5.4,5.4l-42.4-42.4
				L293-425.8z"/>
			<path class="st1" d="M407.1-420l-9.6-9.3l-7,7l-14.9-15l-10.2,9.5l7,7.6l-7.3,7.5l17.2,17.1L407.1-420z M376.6-420.2l-7-7.4
				l5.8-5.5l15,15l7-7l5.3,5.2l-20.4,20.1l-13-12.9L376.6-420.2z"/>
			<path class="st1" d="M279.6-412.8l-9.6-9.6l-7.5,7.5l-15-15l-9.6,9.6l24.6,24.6L279.6-412.8z M247.5-425.6l15,15l7.5-7.5l5.4,5.4
				l-12.9,12.9l-20.4-20.4L247.5-425.6z"/>
			<path class="st1" d="M369.7-397.8l-10.2-9.6l-7.2,7.4l-5.1-5.3l15-15l-9.6-9.6l-24.7,24.6l24.5,24.6L369.7-397.8z M352.5-425.6
				l5.4,5.4l-15,15l9.4,9.7l7.3-7.6l5.8,5.4l-13.1,12.9L332-405.2L352.5-425.6z"/>
			<path class="st1" d="M234.6-412.8L217-430.4l-9.6,9.6l17.6,17.6L234.6-412.8z M217-426.1l13.4,13.4l-5.4,5.4l-13.4-13.4
				L217-426.1z"/>
		</g>
	</g>
</pattern>
<g id="PATTERN">
	<rect class="st2" width="500" height="500"/>
</g>
<g id="OBJECTS">
</g>
<g id="DESIGNED_BY_FREEPIK">
</g>
</svg>
