<?xml version="1.0" encoding="utf-8"?>
<!-- Generator: Adobe Illustrator 22.0.1, SVG Export Plug-In . SVG Version: 6.00 Build 0)  -->
<svg version="1.1" id="Layer_1" xmlns="http://www.w3.org/2000/svg" xmlns:xlink="http://www.w3.org/1999/xlink" x="0px" y="0px"
	 viewBox="0 0 1467 302" style="enable-background:new 0 0 1467 302;" xml:space="preserve">
<style type="text/css">
	.st0{fill:#EDED00;}
	.st1{fill:#FFFFFF;}
	.st2{fill:#9E9E9E;}
	.st3{fill:#BFB60A;}
</style>
<g>
	<g>
		<path class="st0" d="M146,208.2c-1.5,0.1-42.6,0.2-42.6,0.2v-19.3c0-8.8,7.1-15.9,15.9-15.9h22.3c13.1,0,23.8-10.7,23.8-23.8
			s-10.7-23.8-23.8-23.8H34c-1.7,7.7-2.6,15.6-2.6,23.8c0,60.8,49.3,110.1,110.1,110.1c13.6,0,26.6-2.5,38.7-7L146,208.2z"/>
	</g>
	<path class="st1" d="M141.5,90.5c32.5,0,59,26.4,59,59c0,18-8.1,34.1-20.8,44.9L211,235c24.8-20.2,40.7-51,40.7-85.5
		c0-60.8-49.3-110.1-110.1-110.1c-39.1,0-73.5,20.4-93,51.2h92.9V90.5z"/>
	<path class="st2" d="M200,156.7c-1.9,15-9.4,28.3-20.3,37.6l6.3,8.2c9-10.4,14.5-23.9,14.5-38.6C200.5,161.5,200.3,159.1,200,156.7
		z"/>
	<path class="st3" d="M164.2,156.7c0.7-2.3,1.1-4.7,1.1-7.2c0-13.1-10.7-23.8-23.8-23.8H23l8.5,14.5h110
		C152.1,140.1,161.1,147.1,164.2,156.7z"/>
	<path class="st3" d="M188,262.7l-42-54.5c-1.5,0.1-42.6,0.2-42.6,0.2v14.5h38.2c1.5,0,3-0.1,4.4-0.2l25.5,33.1L188,262.7z"/>
	<path class="st0" d="M292.6,64.7h50.7c7,0,13.8,0.7,20.3,2s12.3,3.5,17.4,6.7s9.1,7.4,12.2,12.8c3,5.4,4.5,12.2,4.5,20.4
		c0,10.6-2.9,19.5-8.8,26.6c-5.8,7.1-14.2,11.5-25,13l38.8,64.5h-31.3l-33.8-61.8h-19v61.8h-26L292.6,64.7L292.6,64.7z M338.8,126.6
		c3.7,0,7.4-0.2,11.1-0.5s7.1-1.2,10.2-2.5s5.6-3.3,7.5-6s2.9-6.4,2.9-11.2c0-4.3-0.9-7.7-2.7-10.3c-1.8-2.6-4.1-4.6-7-5.9
		s-6.1-2.2-9.6-2.6S344.3,87,341,87h-22.5v39.6H338.8z"/>
	<path class="st0" d="M415.3,161.2c0-7.8,1.4-14.9,4.2-21.3c2.8-6.4,6.6-11.9,11.4-16.4s10.5-8,17.1-10.5s13.6-3.7,21-3.7
		s14.4,1.2,21,3.7s12.3,6,17.1,10.5c4.8,4.5,8.6,10,11.4,16.4s4.2,13.5,4.2,21.3s-1.4,14.9-4.2,21.3c-2.8,6.4-6.6,11.9-11.4,16.4
		s-10.5,8-17.1,10.5s-13.6,3.7-21,3.7s-14.4-1.2-21-3.7s-12.3-6-17.1-10.5c-4.8-4.5-8.6-10-11.4-16.4
		C416.7,176.2,415.3,169.1,415.3,161.2z M440,161.2c0,3.8,0.7,7.6,2,11.1c1.3,3.6,3.2,6.7,5.8,9.5c2.5,2.8,5.6,4.9,9.2,6.6
		c3.6,1.6,7.6,2.5,12.2,2.5c4.5,0,8.6-0.8,12.2-2.5c3.6-1.6,6.6-3.8,9.2-6.6c2.5-2.7,4.5-5.9,5.8-9.5s2-7.3,2-11.1s-0.7-7.6-2-11.1
		c-1.3-3.6-3.2-6.7-5.8-9.5c-2.5-2.7-5.6-4.9-9.2-6.6c-3.6-1.6-7.6-2.5-12.2-2.5c-4.5,0-8.6,0.8-12.2,2.5c-3.6,1.6-6.6,3.8-9.2,6.6
		c-2.5,2.8-4.5,5.9-5.8,9.5S440,157.4,440,161.2z"/>
	<path class="st0" d="M636.3,210.7h-23.5v-15.9h-0.4c-2.3,4.9-5.9,9.2-10.7,12.9c-4.8,3.6-11.3,5.5-19.6,5.5
		c-6.6,0-12.2-1.1-16.8-3.2c-4.6-2.1-8.3-5-11.2-8.7c-2.9-3.6-4.9-7.8-6.2-12.5c-1.2-4.7-1.9-9.6-1.9-14.6v-62.5h24.7v50.1
		c0,2.8,0.1,5.8,0.4,9.2c0.3,3.4,1,6.5,2.2,9.5s3,5.4,5.4,7.4s5.8,3,10.2,3c4.1,0,7.6-0.7,10.4-2.1c2.8-1.4,5.2-3.2,7-5.6
		c1.9-2.3,3.2-5,4-8s1.2-6.2,1.2-9.5v-54h24.7L636.3,210.7L636.3,210.7z"/>
	<path class="st0" d="M652.8,132.8v-21h20.4V83.1h24.7v28.7h27.2v21h-27.2v43.3c0,4.9,0.9,8.9,2.8,11.8c1.9,2.9,5.5,4.3,11,4.3
		c2.2,0,4.6-0.2,7.2-0.7c2.6-0.5,4.7-1.3,6.2-2.4v20.8c-2.6,1.2-5.8,2.1-9.6,2.6s-7.1,0.7-10,0.7c-6.6,0-12-0.7-16.2-2.2
		c-4.2-1.4-7.5-3.6-9.9-6.6s-4.1-6.6-4.9-11c-0.9-4.4-1.3-9.5-1.3-15.3v-45.4L652.8,132.8L652.8,132.8z"/>
	<path class="st0" d="M764.3,169.9c0.8,7.4,3.7,13.2,8.7,17.3c4.9,4.1,10.9,6.2,17.9,6.2c6.2,0,11.4-1.3,15.6-3.8
		c4.2-2.5,7.9-5.7,11-9.6l17.7,13.4c-5.8,7.1-12.2,12.2-19.4,15.3c-7.1,3-14.6,4.5-22.5,4.5c-7.4,0-14.4-1.2-21-3.7
		s-12.3-6-17.1-10.5s-8.6-10-11.4-16.4c-2.8-6.4-4.2-13.5-4.2-21.3s1.4-14.9,4.2-21.3c2.8-6.4,6.6-11.9,11.4-16.4
		c4.8-4.5,10.5-8,17.1-10.5s13.6-3.7,21-3.7c6.9,0,13.2,1.2,18.9,3.6s10.6,5.9,14.6,10.4c4.1,4.5,7.2,10.1,9.5,16.8s3.4,14.3,3.4,23
		v6.8L764.3,169.9L764.3,169.9z M815,151.3c-0.1-7.3-2.4-13-6.8-17.2c-4.4-4.2-10.5-6.3-18.3-6.3c-7.4,0-13.3,2.1-17.6,6.4
		c-4.3,4.3-7,10-7.9,17.1H815z"/>
	<g>
		<path class="st1" d="M865.1,64.7h50.7c7,0,13.8,0.7,20.3,2s12.3,3.5,17.4,6.7c5.1,3.2,9.1,7.4,12.2,12.8c3,5.4,4.5,12.2,4.5,20.4
			c0,10.6-2.9,19.5-8.8,26.6c-5.8,7.1-14.2,11.5-25,13l38.8,64.5h-31.3l-33.8-61.8h-19v61.8h-26L865.1,64.7L865.1,64.7z
			 M911.3,126.6c3.7,0,7.4-0.2,11.1-0.5c3.7-0.3,7.1-1.2,10.2-2.5c3.1-1.3,5.6-3.3,7.5-6s2.9-6.4,2.9-11.2c0-4.3-0.9-7.7-2.7-10.3
			c-1.8-2.6-4.1-4.6-7-5.9s-6.1-2.2-9.6-2.6s-6.9-0.6-10.2-0.6H891v39.6H911.3z"/>
		<path class="st1" d="M1012.5,169.9c0.8,7.4,3.7,13.2,8.7,17.3c4.9,4.1,10.9,6.2,17.9,6.2c6.2,0,11.4-1.3,15.6-3.8s7.9-5.7,11-9.6
			l17.7,13.4c-5.8,7.1-12.2,12.2-19.4,15.3c-7.1,3-14.6,4.5-22.5,4.5c-7.4,0-14.4-1.2-21-3.7s-12.3-6-17.1-10.5s-8.6-10-11.4-16.4
			c-2.8-6.4-4.2-13.5-4.2-21.3s1.4-14.9,4.2-21.3c2.8-6.4,6.6-11.9,11.4-16.4c4.8-4.5,10.5-8,17.1-10.5s13.6-3.7,21-3.7
			c6.9,0,13.2,1.2,18.9,3.6c5.7,2.4,10.6,5.9,14.6,10.4c4.1,4.5,7.2,10.1,9.5,16.8s3.4,14.3,3.4,23v6.8L1012.5,169.9L1012.5,169.9z
			 M1063.2,151.3c-0.1-7.3-2.4-13-6.8-17.2s-10.5-6.3-18.3-6.3c-7.4,0-13.3,2.1-17.6,6.4c-4.3,4.3-7,10-7.9,17.1H1063.2z"/>
		<path class="st1" d="M1172.9,197.1h-0.6c-3.6,5.6-8.1,9.7-13.6,12.3c-5.5,2.5-11.5,3.8-18.1,3.8c-4.5,0-9-0.6-13.3-1.9
			c-4.3-1.2-8.2-3.1-11.5-5.6c-3.4-2.5-6.1-5.6-8.1-9.3c-2.1-3.7-3.1-8-3.1-13c0-5.4,1-9.9,2.9-13.7s4.5-6.9,7.7-9.5
			c3.2-2.5,7-4.6,11.2-6.1c4.3-1.5,8.7-2.6,13.3-3.4c4.6-0.8,9.2-1.2,13.9-1.4c4.7-0.2,9.1-0.3,13.2-0.3h6.2v-2.7
			c0-6.2-2.1-10.8-6.4-13.9c-4.3-3.1-9.7-4.6-16.3-4.6c-5.2,0-10.1,0.9-14.6,2.8s-8.5,4.4-11.8,7.5l-13-13
			c5.5-5.6,11.9-9.7,19.3-12.2s14.9-3.7,22.8-3.7c7,0,12.9,0.8,17.7,2.4c4.8,1.6,8.8,3.6,12,6.1s5.6,5.3,7.3,8.6
			c1.7,3.2,3,6.5,3.7,9.8c0.8,3.3,1.2,6.5,1.3,9.6c0.1,3.1,0.2,5.8,0.2,8.1v56.9h-22.3L1172.9,197.1L1172.9,197.1z M1171.5,166.4
			h-5.2c-3.4,0-7.3,0.1-11.5,0.4c-4.3,0.3-8.3,0.9-12.1,2c-3.8,1-7,2.5-9.6,4.5s-3.9,4.8-3.9,8.3c0,2.3,0.5,4.3,1.5,5.9
			c1,1.6,2.4,2.9,4,4s3.5,1.9,5.6,2.4s4.1,0.7,6.2,0.7c8.5,0,14.8-2,18.9-6.1s6.1-9.6,6.1-16.6V166.4z"/>
		<path class="st1" d="M1300.1,195.9h-0.4c-3.6,6-8.4,10.4-14.4,13.2c-6,2.7-12.6,4.1-19.6,4.1c-7.7,0-14.5-1.3-20.5-4
			s-11.1-6.4-15.4-11c-4.3-4.7-7.5-10.2-9.7-16.5s-3.3-13.1-3.3-20.4c0-7.3,1.2-14.1,3.5-20.4c2.3-6.3,5.6-11.8,9.8-16.5
			c4.2-4.7,9.2-8.3,15.2-11c5.9-2.7,12.4-4,19.4-4c4.7,0,8.8,0.5,12.4,1.4c3.6,1,6.7,2.2,9.5,3.7c2.7,1.5,5.1,3.1,7,4.8
			c1.9,1.7,3.5,3.4,4.7,5.1h0.6V54.8h24.7v155.9h-23.5L1300.1,195.9L1300.1,195.9z M1241.6,161.2c0,3.8,0.7,7.6,2,11.1
			c1.3,3.6,3.2,6.7,5.8,9.5c2.5,2.8,5.6,4.9,9.2,6.6c3.6,1.6,7.6,2.5,12.2,2.5c4.5,0,8.6-0.8,12.2-2.5c3.6-1.6,6.6-3.8,9.2-6.6
			c2.5-2.7,4.5-5.9,5.8-9.5s2-7.3,2-11.1s-0.7-7.6-2-11.1c-1.3-3.6-3.2-6.7-5.8-9.5c-2.5-2.7-5.6-4.9-9.2-6.6
			c-3.6-1.6-7.6-2.5-12.2-2.5c-4.5,0-8.6,0.8-12.2,2.5c-3.6,1.6-6.6,3.8-9.2,6.6c-2.5,2.8-4.5,5.9-5.8,9.5
			C1242.2,153.7,1241.6,157.4,1241.6,161.2z"/>
		<path class="st1" d="M1338.3,111.7h27.2l27.6,68.7h0.4l24.7-68.7h25.8l-46.8,120.2c-1.8,4.7-3.7,8.8-5.9,12.3
			c-2.1,3.5-4.6,6.5-7.5,8.9s-6.3,4.2-10.2,5.4c-3.9,1.2-8.6,1.8-14.1,1.8c-6.5,0-12.8-0.8-19-2.5l3.1-22.3c1.9,0.7,3.9,1.3,6.1,1.8
			c2.1,0.5,4.3,0.7,6.5,0.7c3,0,5.6-0.3,7.6-0.8c2.1-0.6,3.8-1.4,5.3-2.6c1.4-1.2,2.6-2.7,3.6-4.5c1-1.9,2-4.1,3.1-6.7l4.7-11.8
			L1338.3,111.7z"/>
	</g>
</g>
</svg>
